<?xml version="1.0" encoding="utf-8"?>
<!-- Generator: Adobe Illustrator 18.0.0, SVG Export Plug-In . SVG Version: 6.00 Build 0)  -->
<!DOCTYPE svg PUBLIC "-//W3C//DTD SVG 1.1//EN" "http://www.w3.org/Graphics/SVG/1.1/DTD/svg11.dtd">
<svg version="1.1" id="Icon_Set" xmlns="http://www.w3.org/2000/svg" xmlns:xlink="http://www.w3.org/1999/xlink" x="0px" y="0px"
	 viewBox="0 0 512 512" style="enable-background:new 0 0 512 512;" xml:space="preserve">
<style type="text/css">
	.st0{fill:#4C4372;}
	.st1{fill:#F0C48A;}
	.st2{fill:#FD919E;}
	.st3{fill:#E8677D;}
	.st4{fill:#D3E6F8;}
	.st5{fill:#A4CFF2;}
	.st6{fill:#7BABF1;}
	.st7{fill:#FFFFFF;}
</style>
<g>
	<g>
		<g>
			<g>
				<circle class="st1" cx="256" cy="256" r="207"/>
			</g>
		</g>
	</g>
	<g>
		<g>
			<g>
				<g>
					<path class="st7" d="M461.14,456.537H63.533V135.201h442.604V411.54C506.137,436.391,485.991,456.537,461.14,456.537z"/>
				</g>
			</g>
		</g>
		<g>
			<g>
				<g>
					<path class="st4" d="M377.468,456.537h83.672c24.852,0,44.998-20.147,44.998-44.997V135.201H377.468V456.537z"/>
				</g>
			</g>
		</g>
		<g>
			<g>
				<g>
					<path class="st0" d="M461.14,462.399H63.533c-3.238,0-5.862-2.625-5.862-5.863V135.201c0-3.237,2.625-5.862,5.862-5.862
						h442.604c3.238,0,5.863,2.625,5.863,5.862V411.54C512,439.584,489.184,462.399,461.14,462.399z M69.396,450.674H461.14
						c21.579,0,39.135-17.556,39.135-39.135V141.064H69.396V450.674z"/>
				</g>
			</g>
		</g>
		<g>
			<g>
				<g>
					<path class="st2" d="M356.96,320.339v-48.941h-22.128c-1.708-5.753-3.997-11.256-6.808-16.435l15.646-15.646l-34.607-34.607
						l-15.646,15.646c-5.179-2.812-10.682-5.1-16.435-6.808v-22.127h-48.941v22.128c-5.753,1.707-11.256,3.996-16.436,6.807
						l-15.646-15.646l-34.606,34.607l15.646,15.646c-2.811,5.179-5.1,10.682-6.808,16.435h-22.127v48.941h22.127
						c1.708,5.753,3.996,11.256,6.808,16.435l-15.646,15.646l34.606,34.606l15.646-15.646c5.179,2.812,10.682,5.1,16.436,6.808
						v22.127h48.941v-22.127c5.753-1.708,11.256-3.996,16.435-6.808l15.646,15.646l34.607-34.606l-15.646-15.646
						c2.811-5.179,5.1-10.682,6.808-16.435H356.96z M252.513,347.433c-28.478,0-51.564-23.086-51.564-51.564
						c0-28.479,23.086-51.564,51.564-51.564s51.564,23.086,51.564,51.564C304.077,324.347,280.991,347.433,252.513,347.433z"/>
				</g>
			</g>
		</g>
		<g>
			<g>
				<g>
					<path class="st0" d="M276.983,406.179h-48.941c-3.238,0-5.863-2.625-5.863-5.863v-17.863c-3.22-1.127-6.376-2.435-9.443-3.911
						l-12.63,12.631c-2.29,2.289-6.001,2.29-8.291,0l-34.606-34.607c-2.29-2.29-2.29-6.001,0-8.291l12.631-12.631
						c-1.476-3.066-2.783-6.223-3.911-9.443h-17.863c-3.238,0-5.863-2.625-5.863-5.862v-48.941c0-3.238,2.625-5.863,5.863-5.863
						h17.863c1.127-3.22,2.434-6.376,3.911-9.442l-12.631-12.631c-2.29-2.29-2.29-6.001,0-8.291l34.606-34.607
						c2.289-2.289,6.001-2.289,8.291,0l12.63,12.63c3.066-1.476,6.223-2.783,9.443-3.91v-17.863c0-3.238,2.625-5.863,5.863-5.863
						h48.941c3.238,0,5.862,2.625,5.862,5.863v17.863c3.221,1.127,6.376,2.434,9.443,3.91l12.631-12.63
						c2.289-2.289,6.001-2.289,8.291,0l34.607,34.607c2.289,2.29,2.289,6.001,0,8.291l-12.631,12.631
						c1.476,3.066,2.783,6.223,3.911,9.442h17.863c3.237,0,5.862,2.625,5.862,5.863v48.941c0,3.238-2.625,5.862-5.862,5.862h-17.863
						c-1.128,3.22-2.434,6.376-3.911,9.443l12.631,12.631c2.289,2.29,2.289,6.001,0,8.291l-34.607,34.607
						c-2.289,2.289-6.002,2.289-8.291,0l-12.631-12.631c-3.066,1.476-6.223,2.783-9.443,3.911v17.863
						C282.846,403.554,280.221,406.179,276.983,406.179z M233.905,394.453h37.216v-16.265c0-2.595,1.706-4.882,4.194-5.62
						c5.312-1.577,10.461-3.71,15.306-6.34c2.282-1.239,5.107-0.83,6.943,1.007l11.501,11.501l26.316-26.315l-11.501-11.501
						c-1.836-1.836-2.246-4.661-1.007-6.943c2.63-4.845,4.763-9.995,6.34-15.306c0.738-2.488,3.024-4.195,5.62-4.195h16.265v-37.215
						h-16.265c-2.596,0-4.882-1.707-5.62-4.194c-1.577-5.311-3.71-10.461-6.34-15.306c-1.239-2.282-0.829-5.107,1.007-6.943
						l11.501-11.501l-26.316-26.315l-11.501,11.501c-1.837,1.836-4.66,2.246-6.943,1.007c-4.844-2.629-9.993-4.763-15.306-6.339
						c-2.488-0.739-4.194-3.025-4.194-5.62v-16.266h-37.216v16.266c0,2.595-1.707,4.881-4.194,5.62
						c-5.313,1.577-10.463,3.71-15.307,6.339c-2.282,1.239-5.107,0.829-6.942-1.007l-11.501-11.501l-26.315,26.315l11.501,11.501
						c1.836,1.835,2.246,4.661,1.006,6.943c-2.629,4.843-4.762,9.993-6.339,15.306c-0.739,2.488-3.025,4.194-5.621,4.194h-16.265
						v37.215h16.265c2.595,0,4.882,1.706,5.621,4.194c1.577,5.313,3.71,10.463,6.339,15.306c1.239,2.282,0.83,5.107-1.006,6.943
						l-11.501,11.501l26.315,26.315l11.501-11.501c1.836-1.836,4.66-2.246,6.942-1.007c4.845,2.63,9.995,4.763,15.307,6.34
						c2.487,0.738,4.194,3.025,4.194,5.62V394.453z M252.513,353.296c-31.665,0-57.426-25.762-57.426-57.427
						c0-31.665,25.761-57.426,57.426-57.426s57.427,25.761,57.427,57.426C309.94,327.534,284.178,353.296,252.513,353.296z
						 M252.513,250.167c-25.2,0-45.701,20.501-45.701,45.701c0,25.2,20.502,45.702,45.701,45.702
						c25.2,0,45.701-20.502,45.701-45.702C298.214,270.669,277.713,250.167,252.513,250.167z"/>
				</g>
			</g>
		</g>
		<g>
			<g>
				<circle class="st2" cx="63.533" cy="181.885" r="53.249"/>
			</g>
		</g>
		<g>
			<g>
				<circle class="st3" cx="63.533" cy="181.885" r="21.615"/>
			</g>
		</g>
		<g>
			<g>
				<path class="st5" d="M121.119,364.242l-14.72-150.773c-7.848,10.633-19.557,18.233-33.058,20.748l13.026,133.419
					c0.937,9.597,9.476,16.616,19.073,15.68C115.036,382.378,122.056,373.839,121.119,364.242z"/>
			</g>
		</g>
		<g>
			<g>
				<path class="st5" d="M20.667,213.469L5.946,364.242c-0.937,9.597,6.083,18.136,15.679,19.073h0
					c9.596,0.937,18.135-6.083,19.072-15.68l13.026-133.419C40.223,231.701,28.514,224.102,20.667,213.469z"/>
			</g>
		</g>
		<g>
			<g>
				<path class="st6" d="M63.533,128.637c6.552,0,12.825,1.19,18.623,3.354V87.56c0-10.285-8.337-18.623-18.623-18.623
					c-10.285,0-18.623,8.338-18.623,18.623v44.432C50.708,129.827,56.981,128.637,63.533,128.637z"/>
			</g>
		</g>
		<g>
			<g>
				<path class="st0" d="M82.155,137.854c-0.691,0-1.385-0.122-2.05-0.371c-5.303-1.98-10.878-2.984-16.572-2.984
					c-5.693,0-11.269,1.004-16.571,2.984c-1.8,0.673-3.815,0.42-5.394-0.676c-1.579-1.095-2.52-2.895-2.52-4.816V87.559
					c0-13.501,10.984-24.485,24.485-24.485c13.502,0,24.485,10.984,24.485,24.485v44.432c0,1.921-0.941,3.721-2.52,4.816
					C84.503,137.499,83.334,137.854,82.155,137.854z M63.533,122.774c4.321,0,8.589,0.464,12.76,1.385v-36.6
					c0-7.036-5.725-12.759-12.76-12.759c-7.036,0-12.76,5.724-12.76,12.759v36.6C54.944,123.238,59.212,122.774,63.533,122.774z"/>
			</g>
		</g>
		<g>
			<g>
				<path class="st0" d="M103.724,389.262C103.723,389.262,103.723,389.262,103.724,389.262
					c-12.05-0.001-22.019-9.054-23.191-21.057L67.506,234.786c-0.295-3.026,1.772-5.776,4.762-6.333
					c11.802-2.198,22.248-8.756,29.413-18.466c1.442-1.953,3.939-2.814,6.277-2.169c2.339,0.645,4.04,2.666,4.275,5.081
					l14.721,150.774c1.25,12.798-8.146,24.227-20.945,25.477C105.251,389.224,104.482,389.262,103.724,389.262z M79.674,238.751
					l12.528,128.315c0.583,5.969,5.536,10.47,11.521,10.471c0,0,0.001,0,0.001,0c0.379,0,0.764-0.019,1.146-0.056
					c6.363-0.621,11.036-6.304,10.414-12.668l-13.462-137.887C95.394,232.402,87.86,236.439,79.674,238.751z"/>
			</g>
		</g>
		<g>
			<g>
				<path class="st0" d="M23.343,389.262L23.343,389.262c-0.759,0-1.529-0.038-2.287-0.112C8.257,387.9-1.138,376.471,0.111,363.673
					l14.721-150.774c0.235-2.415,1.936-4.436,4.275-5.081c2.339-0.648,4.835,0.216,6.276,2.169
					c7.165,9.709,17.611,16.267,29.414,18.466c2.989,0.557,5.057,3.307,4.761,6.333L46.533,368.205
					C45.361,380.208,35.391,389.262,23.343,389.262z M25.244,226.925L11.781,364.812c-0.622,6.364,4.051,12.047,10.414,12.668
					c0.381,0.037,0.767,0.056,1.148,0.056c5.985,0,10.938-4.501,11.52-10.47l12.528-128.315
					C39.206,236.439,31.672,232.402,25.244,226.925z"/>
			</g>
		</g>
		<g>
			<g>
				<path class="st0" d="M63.533,240.997c-32.594,0-59.111-26.517-59.111-59.111c0-32.594,26.518-59.111,59.111-59.111
					c32.594,0,59.111,26.517,59.111,59.111C122.644,214.48,96.127,240.997,63.533,240.997z M63.533,134.499
					c-26.129,0-47.386,21.257-47.386,47.386c0,26.128,21.257,47.386,47.386,47.386s47.386-21.258,47.386-47.386
					C110.919,155.756,89.662,134.499,63.533,134.499z"/>
			</g>
		</g>
		<g>
			<g>
				<path class="st0" d="M63.533,209.362c-15.151,0-27.478-12.326-27.478-27.477c0-15.151,12.326-27.477,27.478-27.477
					s27.478,12.326,27.478,27.477C91.01,197.036,78.684,209.362,63.533,209.362z M63.533,166.133
					c-8.686,0-15.752,7.066-15.752,15.753c0,8.686,7.066,15.752,15.752,15.752c8.686,0,15.753-7.066,15.753-15.752
					C79.285,173.199,72.219,166.133,63.533,166.133z"/>
			</g>
		</g>
		<g>
			<g>
				<path class="st0" d="M16.681,422.194c-0.289,0-0.582-0.021-0.877-0.066c-3.202-0.48-5.408-3.465-4.928-6.667l4.952-33.016
					c0.481-3.202,3.465-5.409,6.668-4.928c3.202,0.48,5.408,3.465,4.928,6.668L22.471,417.2
					C22.035,420.107,19.534,422.194,16.681,422.194z"/>
			</g>
		</g>
		<g>
			<g>
				<path class="st0" d="M109.197,422.194c-2.941,0-5.477-2.207-5.818-5.199l-3.764-33.016c-0.367-3.217,1.944-6.122,5.161-6.489
					c3.213-0.372,6.122,1.944,6.489,5.161l3.764,33.016c0.367,3.217-1.943,6.122-5.161,6.489
					C109.643,422.181,109.419,422.194,109.197,422.194z"/>
			</g>
		</g>
		<g>
			<g>
				<g>
					<path class="st5" d="M459.991,55.463L459.991,55.463c-25.486,0-46.147,20.661-46.147,46.147v320.81
						c0-25.486,20.661-46.147,46.147-46.147l0,0c25.486,0,46.146,20.661,46.146,46.147V101.61
						C506.137,76.123,485.477,55.463,459.991,55.463z"/>
				</g>
			</g>
		</g>
		<g>
			<g>
				<g>
					<path class="st6" d="M472.419,377.979c18.471,5.156,32.26,21.505,33.599,41.28V98.45c-1.339-19.776-15.128-36.125-33.599-41.28
						V377.979z"/>
				</g>
			</g>
		</g>
		<g>
			<g>
				<g>
					<path class="st0" d="M506.137,428.282c-3.237,0-5.862-2.625-5.862-5.863c0-22.213-18.071-40.284-40.284-40.284
						c-22.212,0-40.284,18.071-40.284,40.284c0,3.238-2.625,5.863-5.863,5.863c-3.237,0-5.862-2.625-5.862-5.863V101.61
						c0-28.678,23.332-52.009,52.009-52.009c28.678,0,52.009,23.331,52.009,52.009v320.81
						C512,425.657,509.375,428.282,506.137,428.282z M459.991,61.326c-22.212,0-40.284,18.071-40.284,40.284v287.948
						c9.546-11.68,24.058-19.148,40.284-19.148c16.226,0,30.739,7.467,40.284,19.147V101.61
						C500.275,79.397,482.204,61.326,459.991,61.326z"/>
				</g>
			</g>
		</g>
	</g>
</g>
</svg>
